<?xml version="1.0" encoding="UTF-8" standalone="no"?>
<svg
   width="68.339951mm"
   height="117.5mm"
   viewBox="0 0 68.339952 117.5"
   version="1.1"
   id="svg8"
   sodipodi:docname="clock-fixed.svg"
   xml:space="preserve"
   inkscape:version="1.4 (1:1.4+202410161351+e7c3feb100)"
   xmlns:inkscape="http://www.inkscape.org/namespaces/inkscape"
   xmlns:sodipodi="http://sodipodi.sourceforge.net/DTD/sodipodi-0.dtd"
   xmlns="http://www.w3.org/2000/svg"
   xmlns:svg="http://www.w3.org/2000/svg"
   xmlns:rdf="http://www.w3.org/1999/02/22-rdf-syntax-ns#"
   xmlns:cc="http://creativecommons.org/ns#"
   xmlns:dc="http://purl.org/dc/elements/1.1/"><defs
     id="defs8" /><sodipodi:namedview
     id="namedview8"
     pagecolor="#ffffff"
     bordercolor="#666666"
     borderopacity="1.0"
     inkscape:showpageshadow="2"
     inkscape:pageopacity="0.0"
     inkscape:pagecheckerboard="0"
     inkscape:deskcolor="#d1d1d1"
     inkscape:document-units="mm"
     inkscape:zoom="1.3006852"
     inkscape:cx="-218.34645"
     inkscape:cy="134.54446"
     inkscape:window-width="2560"
     inkscape:window-height="1396"
     inkscape:window-x="0"
     inkscape:window-y="0"
     inkscape:window-maximized="1"
     inkscape:current-layer="svg8" /><title
     id="title1">Exported SVG</title><style
     id="style1"><![CDATA[
polygon {
shape-rendering:crispEdges;
stroke-width:0.125916;
}
.s0 {
stroke:#000000;
stroke-width:0.128661;
stroke-linecap:round;
stroke-linejoin:round;
fill:none;
}
.s1 {
stroke:#000000;
stroke-width:0.128661;
stroke-linecap:round;
stroke-linejoin:round;
fill:none;
}
.s2 {
stroke:#19b219;
stroke-width:0.128661;
stroke-linecap:round;
stroke-linejoin:round;
fill:none;
}
.s3 {
stroke:#7f4c00;
stroke-width:0.128661;
stroke-linecap:round;
stroke-linejoin:round;
fill:none;
}
.s4 {
stroke:#00cc00;
stroke-width:0.128661;
stroke-linecap:round;
stroke-linejoin:round;
fill:none;
}
.s5 {
stroke:#000000;
stroke-width:0.085774;
stroke-linecap:round;
stroke-linejoin:round;
fill:none;
}
.s6 {
stroke:#ff19ff;
stroke-width:0.085774;
stroke-linecap:round;
stroke-linejoin:round;
fill:none;
}
.s7 {
stroke:#ff0000;
stroke-width:0.128661;
stroke-linecap:round;
stroke-linejoin:round;
fill:none;
}
.s8 {
stroke:#ffff00;
stroke-width:0.128661;
stroke-linecap:round;
stroke-linejoin:round;
fill:none;
}
.s9 {
stroke:#001919;
stroke-width:0.085774;
stroke-linecap:round;
stroke-linejoin:round;
fill:none;
}
.sa {
stroke:#006666;
stroke-width:0.085774;
stroke-linecap:round;
stroke-linejoin:round;
fill:none;
}
.sb {
stroke:#00ffff;
stroke-width:0.257321;
stroke-linecap:round;
stroke-linejoin:round;
fill:none;
}
.sc {
stroke:#ff0000;
stroke-width:0.686190;
stroke-linecap:round;
stroke-linejoin:round;
fill:none;
}
.sd {
stroke:#191919;
stroke-width:0.085774;
stroke-linecap:round;
stroke-linejoin:round;
fill:none;
}
.se {
stroke:#000000;
stroke-width:0.085774;
stroke-linecap:round;
stroke-linejoin:round;
stroke-dasharray:1.287,1.287;
fill:none;
}
.sf {
stroke:#000000;
stroke-width:0.257321;
stroke-linecap:round;
stroke-linejoin:round;
fill:none;
}
.s100 {
stroke:#ff6666;
stroke-width:0.128661;
stroke-linecap:round;
stroke-linejoin:round;
fill:none;
}
]]></style><style
     id="style1-6"><![CDATA[
polygon {
shape-rendering:crispEdges;
stroke-width:0.094000;
}
.s0 {
stroke:#000000;
stroke-width:0.128661;
stroke-linecap:round;
stroke-linejoin:round;
fill:none;
}
.s1 {
stroke:#000000;
stroke-width:0.128661;
stroke-linecap:round;
stroke-linejoin:round;
fill:none;
}
.s2 {
stroke:#19b219;
stroke-width:0.128661;
stroke-linecap:round;
stroke-linejoin:round;
fill:none;
}
.s3 {
stroke:#7f4c00;
stroke-width:0.128661;
stroke-linecap:round;
stroke-linejoin:round;
fill:none;
}
.s4 {
stroke:#00cc00;
stroke-width:0.128661;
stroke-linecap:round;
stroke-linejoin:round;
fill:none;
}
.s5 {
stroke:#000000;
stroke-width:0.085774;
stroke-linecap:round;
stroke-linejoin:round;
fill:none;
}
.s6 {
stroke:#ff19ff;
stroke-width:0.085774;
stroke-linecap:round;
stroke-linejoin:round;
fill:none;
}
.s7 {
stroke:#ff0000;
stroke-width:0.128661;
stroke-linecap:round;
stroke-linejoin:round;
fill:none;
}
.s8 {
stroke:#ffff00;
stroke-width:0.128661;
stroke-linecap:round;
stroke-linejoin:round;
fill:none;
}
.s9 {
stroke:#001919;
stroke-width:0.085774;
stroke-linecap:round;
stroke-linejoin:round;
fill:none;
}
.sa {
stroke:#006666;
stroke-width:0.085774;
stroke-linecap:round;
stroke-linejoin:round;
fill:none;
}
.sb {
stroke:#00ffff;
stroke-width:0.257321;
stroke-linecap:round;
stroke-linejoin:round;
fill:none;
}
.sc {
stroke:#ff0000;
stroke-width:0.686190;
stroke-linecap:round;
stroke-linejoin:round;
fill:none;
}
.sd {
stroke:#191919;
stroke-width:0.085774;
stroke-linecap:round;
stroke-linejoin:round;
fill:none;
}
.se {
stroke:#000000;
stroke-width:0.085774;
stroke-linecap:round;
stroke-linejoin:round;
stroke-dasharray:1.287,1.287;
fill:none;
}
.sf {
stroke:#000000;
stroke-width:0.257321;
stroke-linecap:round;
stroke-linejoin:round;
fill:none;
}
.s100 {
stroke:#ff6666;
stroke-width:0.128661;
stroke-linecap:round;
stroke-linejoin:round;
fill:none;
}
]]></style><g
     id="g10"
     style="fill:#000000;fill-opacity:1;stroke:none;stroke-opacity:1"
     transform="translate(-38.493158,-14.973)"><path
       d="m 43.949,66.453 -4.888,27.72 H 49.215 L 53.767,68.356 50.903,64.71 a 3.927,3.927 0 0 0 -4.042,-1.384 3.927,3.927 0 0 0 -2.912,3.127"
       class="s1"
       id="path1"
       style="fill:#000000;fill-opacity:1;stroke:none;stroke-opacity:1" /><path
       d="m 61.963,14.973 c -5.168959,1.36e-4 -9.591675,3.711524 -10.489,8.802 l -0.652,3.698 h 10.154 l 0.131,-0.739 c 0.179079,-1.01808 1.063291,-1.760615 2.097,-1.761 h 31.214 l 1.764,-10 z"
       class="s1"
       id="path2"
       style="fill:#000000;fill-opacity:1;stroke:none;stroke-opacity:1"
       sodipodi:nodetypes="ccccccccc" /><path
       d="m 50.416,29.773 -4.839,27.446 a 2.996,2.996 0 0 0 1.453,3.115 2.996,2.996 0 0 0 3.424,-0.299 l 5.611,-4.709 4.506,-25.553 H 50.416"
       class="s1"
       id="path3"
       style="fill:#000000;fill-opacity:1;stroke:none;stroke-opacity:1" /><path
       d="m 57.447,56.973 -5.959,5 3.927,5 h 32.456 l 4.905,-5 -2.887,-5 H 57.447"
       class="s1"
       id="path4"
       style="fill:#000000;fill-opacity:1;stroke:none;stroke-opacity:1" /><path
       d="m 84.175,97.463 6.892,8.214 a 10.651,10.651 0 0 0 2.784,-5.505 l 5.776,-32.757 a 3.591,3.591 0 0 0 -1.893,-3.816 3.591,3.591 0 0 0 -4.206,0.678 l -4.269,4.351 -5.084,28.835"
       class="s1"
       id="path5"
       style="fill:#000000;fill-opacity:1;stroke:none;stroke-opacity:1" /><path
       d="m 106.67,27.473 -5.224,29.63 c -0.32207,1.827275 -1.752725,3.257932 -3.58,3.58 -1.827129,0.322017 -3.660558,-0.533156 -4.588,-2.14 L 91.562,55.57 98.668,15.268 c 5.47345,1.314585 8.97895,6.661319 8.002,12.205 z"
       class="s1"
       id="path7"
       style="fill:#000000;fill-opacity:1;stroke:none;stroke-opacity:1"
       sodipodi:nodetypes="ccccccc" /><path
       d="m 50.907,98.973 h 31.468 l 6.892,8.214 a 10.651,10.651 0 0 1 -5.904,1.786 H 49.144 a 10.651,10.651 0 0 1 -8.159,-3.804 10.651,10.651 0 0 1 -2.33,-8.696 H 48.81 a 2.13,2.13 0 0 0 0.466,1.74 2.13,2.13 0 0 0 1.631,0.76"
       class="s1"
       id="path8"
       style="fill:#000000;fill-opacity:1;stroke:none;stroke-opacity:1" /><path
       d="m 67.497,81.705 c -3.175637,0 -5.75,2.574363 -5.75,5.75 0,3.175637 2.574363,5.75 5.75,5.75 3.175637,0 5.75,-2.574363 5.75,-5.75 0,-3.175637 -2.574363,-5.75 -5.75,-5.75 z"
       class="s1"
       id="path2-5"
       style="fill:#000000;fill-opacity:1;stroke:none;stroke-opacity:1"
       sodipodi:nodetypes="ssscs" /><path
       d="m 77.829,42.241 c -3.175637,0 -5.75,-2.574363 -5.75,-5.75 0,-3.175637 2.574363,-5.75 5.75,-5.75 3.175637,0 5.75,2.574363 5.75,5.75 0,3.175637 -2.574363,5.75 -5.75,5.75 z"
       class="s1"
       id="path3-3"
       style="fill:#000000;fill-opacity:1;stroke:none;stroke-opacity:1"
       sodipodi:nodetypes="ssscs" /></g><metadata
     id="metadata8"><rdf:RDF><cc:Work
         rdf:about=""><dc:title>Exported SVG</dc:title></cc:Work></rdf:RDF></metadata></svg>
